<?xml version="1.0" standalone="no"?>
<!DOCTYPE svg PUBLIC "-//W3C//DTD SVG 20010904//EN"
 "http://www.w3.org/TR/2001/REC-SVG-20010904/DTD/svg10.dtd">
<svg version="1.0" xmlns="http://www.w3.org/2000/svg"
 width="900.000000pt" height="900.000000pt" viewBox="0 0 900.000000 900.000000"
 preserveAspectRatio="xMidYMid meet">
<metadata>
Created by potrace 1.10, written by Peter Selinger 2001-2011
</metadata>
<g transform="translate(0.000000,900.000000) scale(0.100000,-0.100000)"
fill="#ffffff" stroke="none">
<path d="M4450 7305 c-23 -13 -37 -20 -65 -31 -10 -4 -23 -11 -60 -32 -11 -7
-27 -15 -35 -18 -8 -3 -22 -9 -30 -14 -8 -5 -35 -19 -60 -30 -25 -12 -52 -25
-60 -30 -8 -4 -427 -215 -930 -468 -503 -252 -931 -468 -950 -479 l-35 -20 -3
-1081 -2 -1081 82 -72 c46 -40 85 -75 88 -79 3 -3 57 -50 120 -105 63 -54 117
-101 120 -104 3 -4 57 -51 120 -106 63 -54 117 -102 120 -105 3 -3 57 -50 120
-105 185 -158 186 -159 199 -245 7 -41 18 -115 26 -165 8 -49 21 -136 30 -192
30 -202 46 -309 60 -398 8 -49 21 -136 30 -192 8 -57 22 -147 30 -200 29 -200
38 -249 46 -271 l9 -22 457 2 458 3 5 655 5 655 139 3 c105 2 141 -1 148 -10
4 -7 8 -304 8 -660 0 -512 3 -648 13 -648 226 -4 904 3 909 8 9 9 26 101 53
279 8 57 22 149 30 205 9 57 22 144 30 193 15 95 35 229 60 398 9 56 22 139
30 183 8 45 15 97 15 115 0 19 7 59 15 89 16 60 13 57 195 215 63 55 117 102
120 105 3 3 57 50 120 105 63 55 117 102 120 105 3 3 57 50 120 105 137 119
178 156 242 214 l48 44 0 1077 c0 868 -3 1080 -13 1088 -20 17 -2222 1119
-2249 1125 -13 4 -34 0 -48 -8z m480 -734 c964 -484 1333 -671 1346 -682 12
-10 14 -72 12 -358 l-3 -346 -820 -5 -820 -5 -5 -850 c-3 -467 -9 -856 -13
-862 -6 -9 -45 -13 -137 -13 -118 0 -130 2 -140 19 -7 13 -10 300 -10 860 l0
841 -813 0 c-619 0 -816 3 -825 12 -18 18 -17 677 1 701 17 23 1757 895 1787
896 14 0 212 -93 440 -208z m-1066 -1887 c3 -9 6 -33 6 -55 0 -48 -19 -59 -64
-36 -44 22 -140 65 -171 77 -51 19 -14 30 105 30 98 0 119 -3 124 -16z m1500
7 c4 -5 -13 -18 -36 -29 -209 -97 -211 -97 -216 -43 -2 19 -1 44 2 57 6 24 9
24 126 24 65 0 121 -4 124 -9z m-2559 -170 c33 -16 90 -42 127 -60 37 -17 70
-31 72 -31 3 0 44 -18 93 -41 48 -22 106 -49 128 -59 22 -10 67 -30 100 -45
33 -15 79 -35 103 -46 23 -10 61 -28 85 -38 23 -11 69 -31 102 -46 90 -40 187
-85 215 -99 l25 -12 3 -949 c1 -665 -1 -952 -9 -959 -16 -16 -37 19 -44 73 -3
25 -12 90 -20 144 -8 53 -22 143 -30 200 -9 56 -22 143 -30 192 -8 50 -21 137
-30 195 -20 135 -40 259 -61 388 l-17 102 -91 78 c-50 42 -98 84 -106 92 -8 8
-65 57 -125 109 -61 52 -114 99 -120 105 -5 6 -62 56 -125 111 -63 55 -120
104 -126 110 -6 5 -44 39 -85 75 -41 36 -91 81 -111 101 l-38 37 0 140 c0 77
3 148 6 156 8 20 24 16 109 -23z m3479 23 c3 -9 6 -79 6 -156 l0 -141 -42 -41
c-24 -23 -74 -68 -112 -101 -38 -33 -77 -67 -85 -76 -9 -8 -65 -58 -126 -109
-60 -52 -114 -100 -120 -106 -5 -6 -59 -53 -120 -105 -60 -51 -112 -96 -115
-100 -3 -3 -41 -37 -85 -75 -129 -110 -121 -98 -139 -209 -20 -121 -40 -244
-61 -385 -8 -58 -22 -142 -30 -186 -8 -45 -15 -94 -15 -109 0 -15 -7 -64 -15
-109 -16 -88 -41 -254 -50 -327 -3 -26 -12 -55 -20 -65 -15 -19 -15 -19 -30 0
-13 17 -15 139 -15 951 0 875 1 933 18 947 16 14 35 23 155 77 23 11 68 31
100 45 31 14 83 38 115 52 31 14 75 34 97 44 22 10 67 30 100 45 33 15 80 36
105 47 25 11 59 26 75 33 17 8 57 26 90 40 90 40 144 64 210 95 95 45 101 46
109 24z"/>
</g>
</svg>
